Format : AVI
Format/Info : Audio Video Interleave
File size : 654 MiB
Duration : 1h 46mn
Overall bit rate : 430 Kbps
Writing application : MEncoder SVN-r29352(20090610-gcc4.3.3)
Writing library : MPlayer

Video
ID : 0
Format : MPEG-4 Visual
Format profile : AdvancedSimple@L5
Format settings, BVOP : Yes
Format settings, QPel : No
Format settings, GMC : No warppoints
Format settings, Matrix : Default (H.263)
Codec ID : XVID
Codec ID/Hint : XviD
Duration : 1h 46mn
Bit rate : 752 Kbps
Width : 640 pixels
Height : 360 pixels
Display aspect ratio : 16:9
Frame rate : 25.000 fps
Resolution : 24 bits
Colorimetry : 4:2:0
Scan type : Progressive
Bits/(Pixel*Frame) : 0.131
Stream size : 572 MiB (87%)
Writing library : XviD 1.2.1 (UTC 2008-12-04)

Audio
ID : 1
Format : MPEG Audio
Format version : Version 2
Format profile : Layer 3
Codec ID : 55
Codec ID/Hint : MP3
Duration : 1h 46mn
Bit rate mode : Constant
Bit rate : 96.0 Kbps
Channel(s) : 2 channels
Sampling rate : 22.05 KHz
Resolution : 16 bits
Video delay : 120ms
Stream size : 73.0 MiB (11%)
Alignment : Aligned on interleaves
Interleave, duration : 26 ms (0.65 video frame)
Interleave, preload duration : 522 ms
Writing library : LAME3.98

Nic and Jules (Annette Bening and Julianne Moore) are married and share a cozy suburban Southern California home with their teenage children, Joni and Laser (Mia Wasikowska and Josh Hutcherson). Nic and Jules - or, when referred to jointly by Joni, "Moms" - gave birth to and raised their children, and built a family life for the four of them. As Joni prepares to leave for college, 15-year-old Laser presses her for a big favor. He wants Joni, now 18, to help him find their biological father; the two teenagers were conceived by artificial insemination.
 
http://www.imdb.com/title/tt0842926/

screens
 
http://img823.imageshack.us/img823/5941/thekidsalrightxvidvicea.jpg 
http://img2.imageshack.us/img2/5941/thekidsalrightxvidvicea.jpg 
http://img822.imageshack.us/img822/5941/thekidsalrightxvidvicea.jpg 
http://img824.imageshack.us/img824/5941/thekidsalrightxvidvicea.jpg